<?xml version="1.0" ?><svg height="182px" version="1.1" viewBox="0 0 182 182" width="182px" xmlns="http://www.w3.org/2000/svg" xmlns:sketch="http://www.bohemiancoding.com/sketch/ns" xmlns:xlink="http://www.w3.org/1999/xlink"><title/><defs/><g fill="none" fill-rule="evenodd" id="Page-1" stroke="none" stroke-width="1"><g id="Switzeland" transform="translate(1.000000, 1.000000)"><circle cx="90" cy="90" d="M90,180 C139.70563,180 180,139.70563 180,90 C180,40.2943701 139.70563,0 90,0 C40.2943701,0 0,40.2943701 0,90 C0,139.70563 40.2943701,180 90,180 Z M90,180" fill="#CA4638" id="Oval-1-copy-4" r="90"/><rect d="M75,30 L75,150 L105,150 L105,30 L75,30 Z M75,30" fill="#FFFFFF" height="120" id="Oval-1-copy-5" width="30" x="75" y="30"/><rect d="M30,75 L30,105 L150,105 L150,75 L30,75 Z M30,75" fill="#FFFFFF" height="30" id="Oval-1-copy-6" width="120" x="30" y="75"/></g></g></svg>